<svg width="40" height="38" viewBox="0 0 40 38" fill="none" xmlns="http://www.w3.org/2000/svg">
<path fill-rule="evenodd" clip-rule="evenodd" d="M20 0C8.91719 0 0 8.47133 0 19C0 29.5287 8.91719 38 20 38C31.0828 38 40 29.5287 40 19C40 8.47133 31.0828 0 20 0ZM20 36.4162C9.91719 36.4162 1.66719 28.5787 1.66719 19C1.66719 9.42133 9.91719 1.58383 20 1.58383C30.0828 1.58383 38.3328 9.42133 38.3328 19C38.3328 28.5787 30.0828 36.4162 20 36.4162Z" fill="#C71222"/>
<path fill-rule="evenodd" clip-rule="evenodd" d="M29.9493 21.8C29.5385 21.6663 29.0462 21.7338 28.8832 22.0663C27.0785 24.9325 23.5493 26.6663 19.6939 26.6663C15.7555 26.6663 12.3093 24.9325 10.5047 22.0663C10.3401 21.7325 9.84777 21.6 9.43854 21.8C9.02777 21.9338 8.86469 22.3338 9.02777 22.6663C11.0785 25.9325 15.1001 28 19.6939 28C24.2062 28 28.3093 25.9338 30.2785 22.6663C30.5247 22.3325 30.3601 21.9325 29.9508 21.8H29.9493Z" fill="#C71222"/>
<path fill-rule="evenodd" clip-rule="evenodd" d="M15.5893 14.6663C15.5893 15.7713 14.4878 16.6663 13.1278 16.6663C11.7678 16.6663 10.6663 15.7713 10.6663 14.6663C10.6663 13.5613 11.7678 12.6663 13.1278 12.6663C14.4878 12.6663 15.5893 13.5613 15.5893 14.6663Z" fill="#C71222"/>
<path fill-rule="evenodd" clip-rule="evenodd" d="M28.7185 14.6663C28.7185 15.7713 27.6169 16.6663 26.2569 16.6663C24.8969 16.6663 23.7954 15.7713 23.7954 14.6663C23.7954 13.5613 24.8969 12.6663 26.2569 12.6663C27.6169 12.6663 28.7185 13.5613 28.7185 14.6663Z" fill="#C71222"/>
</svg>
